<?xml version="1.0" standalone="no"?>
<!DOCTYPE svg PUBLIC "-//W3C//DTD SVG 20010904//EN"
 "http://www.w3.org/TR/2001/REC-SVG-20010904/DTD/svg10.dtd">
<svg version="1.0" xmlns="http://www.w3.org/2000/svg"
 width="640.000000pt" height="480.000000pt" viewBox="0 0 640.000000 480.000000"
 preserveAspectRatio="xMidYMid meet">

<g transform="translate(0.000000,480.000000) scale(0.100000,-0.100000)"
fill="#000000" stroke="none">
<path d="M2714 3396 c-39 -17 -44 -31 -44 -122 l0 -74 -81 0 c-103 0 -157 -14
-204 -53 -72 -59 -75 -72 -75 -427 0 -348 3 -362 66 -422 62 -58 59 -58 593
-58 l489 0 53 28 c39 20 62 41 84 77 l30 48 0 326 c0 365 2 356 -74 424 -49
44 -93 57 -197 57 l-82 0 -4 80 c-3 67 -7 83 -26 102 -22 22 -28 23 -260 25
-184 2 -244 0 -268 -11z m486 -131 l0 -65 -230 0 -230 0 0 65 0 65 230 0 230
0 0 -65z m286 -161 c67 -49 69 -57 69 -261 l0 -186 -74 -29 c-247 -99 -613
-116 -898 -42 -50 13 -116 35 -147 48 l-56 25 0 176 c0 127 4 185 14 209 15
36 58 71 96 79 14 3 237 4 497 3 460 -1 472 -2 499 -22z m-791 -616 c103 -17
148 -20 320 -15 217 6 341 27 474 81 36 14 67 26 69 26 3 0 2 -38 0 -84 -7
-100 -26 -138 -83 -166 -39 -19 -63 -20 -511 -20 -523 0 -515 -1 -561 69 -19
28 -23 47 -23 116 l0 82 98 -34 c53 -19 151 -43 217 -55z"/>
<path d="M2912 2817 c-46 -26 -66 -78 -51 -132 22 -77 119 -102 181 -46 29 26
33 35 33 81 0 46 -4 55 -33 81 -36 32 -89 38 -130 16z"/>
<path d="M3353 2047 c-48 -23 -53 -32 -23 -40 19 -5 20 -14 20 -195 0 -182 -1
-191 -20 -197 -42 -13 -17 -25 54 -25 80 0 101 10 61 28 l-25 12 0 220 c0 170
-3 220 -12 219 -7 0 -32 -10 -55 -22z"/>
<path d="M3546 2007 c-11 -8 -17 -23 -14 -38 2 -19 10 -25 35 -27 28 -3 33 0
39 24 5 20 2 31 -11 41 -23 16 -27 16 -49 0z"/>
<path d="M1940 2000 c0 -6 8 -14 18 -17 9 -4 20 -11 24 -17 4 -6 8 -82 8 -169
l0 -158 -30 -17 c-16 -9 -30 -20 -30 -24 0 -11 188 -10 194 1 3 5 -8 14 -24
20 -30 10 -30 11 -30 85 l0 76 105 0 106 0 -3 -77 -3 -77 -32 -8 c-63 -16 -34
-28 71 -28 108 0 139 10 86 29 l-30 10 0 171 0 170 25 12 c46 21 26 28 -75 28
-80 0 -100 -3 -100 -14 0 -9 12 -16 28 -18 27 -3 27 -4 30 -80 l3 -78 -106 0
-105 0 0 75 c0 71 2 76 25 87 45 20 27 28 -65 28 -55 0 -90 -4 -90 -10z"/>
<path d="M2853 1869 c-47 -44 -50 -49 -28 -49 12 0 15 -17 15 -95 0 -82 3 -98
20 -115 28 -28 81 -26 108 3 30 32 29 52 -2 32 -45 -30 -56 -12 -56 86 l0 89
46 0 c38 0 45 3 42 18 -2 12 -15 18 -47 20 -40 3 -43 5 -38 28 6 34 -11 30
-60 -17z"/>
<path d="M2555 1856 c-38 -16 -84 -70 -87 -99 -7 -103 49 -167 147 -167 91 0
155 58 155 140 0 98 -120 168 -215 126z m83 -22 c34 -23 52 -67 52 -126 0 -72
-20 -100 -68 -96 -33 3 -40 8 -59 48 -26 51 -29 109 -8 150 13 24 23 32 55 39
3 0 16 -6 28 -15z"/>
<path d="M3101 1852 c-46 -25 -71 -74 -71 -140 0 -48 4 -58 34 -88 28 -28 42
-34 76 -34 44 0 101 22 121 46 18 22 4 27 -30 10 -67 -35 -126 -6 -138 68 l-6
36 92 0 91 0 0 26 c0 16 -13 39 -34 60 -40 40 -82 45 -135 16z m80 -22 c10 -6
19 -20 19 -30 0 -17 -7 -20 -50 -20 -54 0 -62 10 -33 42 18 20 36 23 64 8z"/>
<path d="M3545 1843 c-46 -24 -48 -26 -27 -34 20 -8 22 -14 22 -93 0 -75 -2
-87 -20 -96 -38 -20 -20 -30 55 -30 77 0 90 6 55 28 -18 11 -20 23 -20 132 0
66 -3 120 -7 120 -5 -1 -30 -13 -58 -27z"/>
<path d="M3766 1848 c-130 -76 -74 -260 79 -260 114 0 191 117 133 201 -53 78
-139 102 -212 59z m89 -8 c52 -20 82 -138 50 -199 -43 -84 -135 -15 -135 102
0 48 4 62 25 82 28 29 25 28 60 15z"/>
</g>
</svg>
